<svg xmlns="http://www.w3.org/2000/svg" width="39.21" height="26.14" viewBox="0 0 39.21 26.14">
  <g id="Mail_icon" data-name="Mail icon" transform="translate(0)">
    <g id="Square" transform="translate(0)" fill="none">
      <path d="M4.127,0H35.082A4.127,4.127,0,0,1,39.21,4.127V22.012a4.127,4.127,0,0,1-4.127,4.127H4.127A4.127,4.127,0,0,1,0,22.012V4.127A4.127,4.127,0,0,1,4.127,0Z" stroke="none"/>
      <path d="M 4.127330780029297 3 C 3.505722045898438 3 3 3.505720138549805 3 4.127328872680664 L 3 22.01243019104004 C 3 22.6340389251709 3.505722045898438 23.1397590637207 4.127330780029297 23.1397590637207 L 35.08230972290039 23.1397590637207 C 35.70391845703125 23.1397590637207 36.20964050292969 22.6340389251709 36.20964050292969 22.01243019104004 L 36.20964050292969 4.127328872680664 C 36.20964050292969 3.505720138549805 35.70391845703125 3 35.08230972290039 3 L 4.127330780029297 3 M 4.127330780029297 0 L 35.08230972290039 0 C 37.36177062988281 0 39.20964050292969 1.847869873046875 39.20964050292969 4.127328872680664 L 39.20964050292969 22.01243019104004 C 39.20964050292969 24.29188919067383 37.36177062988281 26.1397590637207 35.08230972290039 26.1397590637207 L 4.127330780029297 26.1397590637207 C 1.847869873046875 26.1397590637207 0 24.29188919067383 0 22.01243019104004 L 0 4.127328872680664 C 0 1.847869873046875 1.847869873046875 0 4.127330780029297 0 Z" stroke="none" fill="#fff"/>
    </g>
    <path id="Line" d="M886.57,576.877l18.08,11.63,17.4-11.63" transform="translate(-884.677 -572.909)" fill="none" stroke="#fff" stroke-linecap="round" stroke-width="2"/>
  </g>
</svg>
